<svg xmlns="http://www.w3.org/2000/svg" viewBox="0 0 64 64">
  <rect width="64" height="64" rx="12" fill="#020817"/>
  <circle cx="32" cy="32" r="25.5" fill="#f5f5f5" stroke="#0f141c" stroke-width="1.5"/>

  <!-- Center pentagon -->
  <polygon points="32,21 39.5,26.5 36.7,35.2 27.3,35.2 24.5,26.5" fill="#0f141c"/>

  <!-- Ring of 5 pentagons around the center one -->
  <g fill="#0f141c">
    <polygon points="32,10.5 37,14.2 35.1,20 28.9,20 27,14.2" transform="rotate(0 32 32)"/>
    <polygon points="32,10.5 37,14.2 35.1,20 28.9,20 27,14.2" transform="rotate(72 32 32)"/>
    <polygon points="32,10.5 37,14.2 35.1,20 28.9,20 27,14.2" transform="rotate(144 32 32)"/>
    <polygon points="32,10.5 37,14.2 35.1,20 28.9,20 27,14.2" transform="rotate(216 32 32)"/>
    <polygon points="32,10.5 37,14.2 35.1,20 28.9,20 27,14.2" transform="rotate(288 32 32)"/>
  </g>
</svg>
